<?xml version="1.0" encoding="utf-8"?>
<svg id="master-artboard" viewBox="0 0 500 500" version="1.1" xmlns="http://www.w3.org/2000/svg" x="0px" y="0px" style="enable-background:new 0 0 1400 980;" width="100px" height="100px"><rect id="ee-background" x="0" y="0" width="500" height="500" style="fill: white; fill-opacity: 0; pointer-events: none;"/><g transform="matrix(4.90000057220459, 0, 0, 4.90000057220459, -2945.8857676729017, -219.62995659035698)"><g id="g-1" transform="matrix(1, 0, 0, 1, 0, 0)">
	<g id="g-2">
		<path class="st0" d="M652,46c27.6,0,50,22.4,50,50s-22.4,50-50,50s-50-22.4-50-50S624.4,46,652,46z" style="fill: rgb(255, 0, 13); stroke: rgb(0, 0, 0); stroke-width: 1;"/>
	</g>
</g><path d="M 626.5100708007812 72.56038665771484" style="fill-opacity: 1; stroke: rgb(0, 0, 0); stroke-opacity: 1; stroke-width: 10; paint-order: fill;"/></g><path d="M 245.41421508789062 4.994166374206543 L 247.79461669921875 492.9754638671875" style="fill: rgb(0, 0, 0); fill-opacity: 1; stroke: rgb(0, 0, 0); stroke-opacity: 1; stroke-width: 10; paint-order: fill;" transform="matrix(6.072071982998748e-7, 1.000001788139343, -1.000001788139343, 6.072071982998748e-7, 499.3094272808343, 1.140566580954271)"/><path d="M 127.70857238769531 238.27304077148438" style="fill: rgb(0, 0, 0); fill-opacity: 0; stroke: rgb(0, 0, 0); stroke-opacity: 1; stroke-width: 10; paint-order: stroke;"/><path d="M 123.98920440673828 248.1913604736328" style="fill: rgb(0, 0, 0); fill-opacity: 0; stroke: rgb(0, 0, 0); stroke-opacity: 1; stroke-width: 10; paint-order: fill;"/><path d="M 451.2937316894531 115.53384399414062 C 398.3258172244118 150.9361491734403 117.96161209631228 156.32030437792503 47.12222671508789 109.33489227294922" style="fill: rgb(0, 0, 0); fill-opacity: 0; stroke: rgb(0, 0, 0); stroke-opacity: 1; stroke-width: 10; paint-order: fill;"/><path d="M 63.23949432373047 408.124267578125 C 195.72151380932712 330.80084074487394 403.1903885718484 365.4354125619235 436.4162902832031 406.88446044921875" style="fill: rgb(0, 0, 0); fill-opacity: 0; stroke: rgb(0, 0, 0); stroke-opacity: 1; stroke-width: 10; paint-order: stroke;"/><path d="M 101.67298126220703 382.08868408203125" style="fill: rgb(0, 0, 0); fill-opacity: 0; stroke: rgb(0, 0, 0); stroke-opacity: 1; stroke-width: 10; paint-order: fill;"/></svg>