<?xml version="1.0" encoding="utf-8"?>
<svg id="master-artboard" viewBox="0 0 500 500" version="1.1" xmlns="http://www.w3.org/2000/svg" x="0px" y="0px" style="enable-background:new 0 0 1400 980;" width="100px" height="100px"><rect id="ee-background" x="0" y="0" width="500" height="500" style="fill: white; fill-opacity: 0; pointer-events: none;"/><g transform="matrix(4.90000057220459, 0, 0, 4.90000057220459, -2945.8857676729017, -219.62995659035698)"><g id="g-1" transform="matrix(1, 0, 0, 1, 0, 0)">
	<g id="g-2">
		<path class="st0" d="M652,46c27.6,0,50,22.4,50,50s-22.4,50-50,50s-50-22.4-50-50S624.4,46,652,46z" style="fill: rgb(255, 0, 13); stroke: rgb(0, 0, 0); stroke-width: 1;"/>
	</g>
</g><path d="M 626.5100708007812 72.56038665771484" style="fill-opacity: 1; stroke: rgb(0, 0, 0); stroke-opacity: 1; stroke-width: 10; paint-order: fill;"/></g><path d="M 245.41421508789062 4.994166374206543 L 247.79461669921875 492.9754638671875" style="fill: rgb(0, 0, 0); fill-opacity: 1; stroke: rgb(0, 0, 0); stroke-opacity: 1; stroke-width: 10; paint-order: fill;"/><path d="M 404.1817321777344 63.46266174316406 C 346.3312428512418 141.24443502543417 345.67817250667713 345.74642060222794 400.4623718261719 437.8792419433594" style="fill: rgb(0, 0, 0); fill-opacity: 0; stroke: rgb(0, 0, 0); stroke-opacity: 1; stroke-width: 10; paint-order: stroke;" transform="matrix(1.0066225268121414, 0, 0, 1.0066225268121414, -2.3845607473368573, -0.4202831789639625)"/><path d="M 83.07613372802734 70.90140533447266 C 132.07530266158682 116.08745128225735 146.29844420916635 361.8858279804446 89.27508544921875 432.9200744628906" style="fill: rgb(0, 0, 0); fill-opacity: 0; stroke: rgb(0, 0, 0); stroke-opacity: 1; stroke-width: 10; paint-order: fill;" transform="matrix(1.0000001178026796, 0, 0, 1.0000001178026796, 0.000009907481139936891, 0.000005358952397838124)"/></svg>