<?xml version="1.0" encoding="utf-8"?>
<svg id="master-artboard" viewBox="0 0 515.114013671875 514.8533935546875" version="1.1" xmlns="http://www.w3.org/2000/svg" x="0px" y="0px" style="enable-background:new 0 0 336 235.2;" width="100px" height="100px"><rect id="ee-background" x="0" y="0" width="515.114013671875" height="514.8533935546875" style="fill: white; fill-opacity: 0; pointer-events: none;"/><g transform="matrix(4.90000057220459, 0, 0, 4.90000057220459, -2936.689208984375, -214.08084678649902)"><g id="g-1" transform="matrix(1, 0, 0, 1, 0, 0)">
	<g id="g-2">
		<path class="st0" d="M652,46c27.6,0,50,22.4,50,50s-22.4,50-50,50s-50-22.4-50-50S624.4,46,652,46z" style="fill: rgb(0, 255, 8); stroke: rgb(0, 0, 0); stroke-width: 1;"/>
	</g>
</g></g><path style="fill: rgb(0, 0, 0); fill-opacity: 0; stroke: rgb(0, 0, 0); stroke-opacity: 1; stroke-width: 10; paint-order: fill;"/><g transform="matrix(0.27068397402763367, 0, 0, 0.27068397402763367, 90.35442784832554, 327.2391061454588)"><g id="g-27" transform="matrix(1, 0, 0, 1, 0, 0)">
	<g id="g-28">
		<path class="st0" d="M652,46c27.6,0,50,22.4,50,50s-22.4,50-50,50s-50-22.4-50-50S624.4,46,652,46z" style="fill: rgb(6, 5, 6);"/>
	</g>
</g></g><g transform="matrix(0.27068397402763367, 0, 0, 0.27068397402763367, -41.43710691595527, 182.1576655234206)"><g id="g-31" transform="matrix(1, 0, 0, 1, 0, 0)">
	<g id="g-32">
		<path class="st0" d="M652,46c27.6,0,50,22.4,50,50s-22.4,50-50,50s-50-22.4-50-50S624.4,46,652,46z" style="fill: rgb(6, 5, 6);"/>
	</g>
</g></g><g transform="matrix(0.27068397402763367, 0, 0, 0.27068397402763367, 207.7485603605965, 182.15764662016068)"><g id="g-33" transform="matrix(1, 0, 0, 1, 0, 0)">
	<g id="g-34">
		<path class="st0" d="M652,46c27.6,0,50,22.4,50,50s-22.4,50-50,50s-50-22.4-50-50S624.4,46,652,46z" style="fill: rgb(6, 5, 6);"/>
	</g>
</g></g></svg>