<?xml version="1.0" encoding="utf-8"?>
<svg id="master-artboard" viewBox="0 0 515.114013671875 514.8533935546875" version="1.1" xmlns="http://www.w3.org/2000/svg" x="0px" y="0px" style="enable-background:new 0 0 336 235.2;" width="100px" height="100px"><rect id="ee-background" x="0" y="0" width="515.114013671875" height="514.8533935546875" style="fill: white; fill-opacity: 0; pointer-events: none;"/><path style="fill: rgb(0, 0, 0); fill-opacity: 0; stroke: rgb(0, 0, 0); stroke-opacity: 1; stroke-width: 10; paint-order: fill;"/><path d="M 260.1954345703125 15.439740180969238 L 262.4104309082031 497.1986999511719" style="fill: rgb(11, 11, 11); fill-opacity: 1; stroke: rgb(0, 0, 0); stroke-opacity: 1; stroke-width: 10; paint-order: stroke;"/><g transform="matrix(4.90000057220459, 0, 0, 4.90000057220459, -2936.689208984375, -214.08084678649902)"><g id="g-1" transform="matrix(1, 0, 0, 1, 0, 0)">
	<g id="g-2">
		<path class="st0" d="M 652 46 C 679.6 46 702 68.4 702 96 C 702 123.6 679.6 146 652 146 C 624.4 146 602 123.6 602 96 C 602 68.4 624.4 46 652 46 Z" style="fill: rgb(0, 255, 8); stroke: rgb(10, 10, 10); stroke-width: 1; paint-order: fill;"/>
	</g>
</g><path d="M 651.9733276367188 46.162872314453125 L 651.747314453125 145.83712768554688" style="fill: rgb(255, 255, 255); fill-opacity: 0; stroke: rgb(0, 0, 0); stroke-opacity: 1; stroke-width: 2; paint-order: fill;"/><path d="M 683.36865234375 57.661128997802734 C 670.1550266202242 71.3313186421957 672.3939867452887 122.39388549498447 685.424072265625 132.77157592773438" style="fill: rgb(255, 255, 255); fill-opacity: 0; stroke: rgb(0, 0, 0); stroke-opacity: 1; stroke-width: 2; paint-order: stroke;"/><path d="M 617.3924560546875 59.950016021728516 C 631.9122977397449 68.61649316093347 630.4163280283209 128.7156586013234 619.1857299804688 133.42738342285156" style="fill: rgb(255, 255, 255); fill-opacity: 0; stroke: rgb(0, 0, 0); stroke-opacity: 1; stroke-width: 2; paint-order: stroke;"/><path d="M 681.6438598632812 65.65581512451172" style="fill: rgb(255, 255, 255); fill-opacity: 0; stroke: rgb(0, 0, 0); stroke-opacity: 1; stroke-width: 2; paint-order: fill;"/><path d="M 676.7816772460938 92.98445129394531" style="fill: rgb(255, 255, 255); fill-opacity: 0; stroke: rgb(0, 0, 0); stroke-opacity: 1; stroke-width: 2; paint-order: fill;"/><path d="M 725.2355346679688 114.61263275146484 L 725.2355346679688 114.61263275146484" style="fill: rgb(255, 255, 255); fill-opacity: 0; stroke: rgb(0, 0, 0); stroke-opacity: 1; stroke-width: 2; paint-order: fill;"/></g><path style="fill: rgb(0, 255, 8); fill-opacity: 1; stroke: rgb(10, 10, 10); stroke-opacity: 1; stroke-width: 1; paint-order: fill;"/></svg>