<?xml version="1.0" encoding="utf-8"?>
<svg id="master-artboard" viewBox="0 0 500 500" version="1.1" xmlns="http://www.w3.org/2000/svg" x="0px" y="0px" style="enable-background:new 0 0 1400 980;" width="100px" height="100px"><rect id="ee-background" x="0" y="0" width="500" height="500" style="fill: white; fill-opacity: 0; pointer-events: none;"/><g transform="matrix(4.90000057220459, 0, 0, 4.90000057220459, -2945.8857676729017, -219.62995659035698)"><g id="g-1" transform="matrix(1, 0, 0, 1, 0, 0)">
	<g id="g-2">
		
	<path class="st0" d="M652,46c27.6,0,50,22.4,50,50s-22.4,50-50,50s-50-22.4-50-50S624.4,46,652,46z" style="fill: rgb(255, 106, 0); stroke: rgb(0, 0, 0); stroke-width: 1;"/></g>
</g><path d="M 626.5100708007812 72.56038665771484" style="fill-opacity: 1; stroke: rgb(0, 0, 0); stroke-opacity: 1; stroke-width: 10; paint-order: fill;"/></g><path d="M 127.70857238769531 238.27304077148438" style="fill: rgb(0, 0, 0); fill-opacity: 0; stroke: rgb(0, 0, 0); stroke-opacity: 1; stroke-width: 10; paint-order: stroke;"/><path d="M 123.98920440673828 248.1913604736328" style="fill: rgb(0, 0, 0); fill-opacity: 0; stroke: rgb(0, 0, 0); stroke-opacity: 1; stroke-width: 10; paint-order: fill;"/><path d="M 101.67298126220703 382.08868408203125" style="fill: rgb(0, 0, 0); fill-opacity: 0; stroke: rgb(0, 0, 0); stroke-opacity: 1; stroke-width: 10; paint-order: fill;"/><path style="fill: rgb(14, 14, 14); fill-opacity: 0; stroke: rgb(0, 0, 0); stroke-opacity: 1; stroke-width: 10; paint-order: stroke;"/><path d="M 214.49386596679688 135.3704833984375 L 214.49386596679688 135.3704833984375 L 214.49386596679688 135.3704833984375 L 214.49386596679688 135.3704833984375 L 214.49386596679688 135.3704833984375" style="fill: rgb(14, 14, 14); fill-opacity: 0; stroke: rgb(0, 0, 0); stroke-opacity: 1; stroke-width: 10; paint-order: fill;" transform="matrix(0.9956027604545378, 0, 0, 0.9956027604545378, 1.08708456238385, 1.8350496460951788)"/><path d="M 8.688735961914062 251.91073608398438 L 8.688735961914062 251.91073608398438 L 8.688735961914062 251.91073608398438 L 8.688735961914062 251.91073608398438 L 8.688735961914062 251.91073608398438 L 489.72723388671875 254.39031982421875 L 489.72723388671875 254.39031982421875 L 489.72723388671875 254.39031982421875 L 489.72723388671875 254.39031982421875 L 489.72723388671875 254.39031982421875" style="fill: rgb(255, 106, 0); fill-opacity: 1; stroke: rgb(0, 0, 0); stroke-opacity: 1; stroke-width: 10; paint-order: stroke;" transform="matrix(-4.4878157723360346e-7, 1.0154690742492676, -1.0154690742492676, -4.4878157723360346e-7, 507.5149974887937, -1.1316075065256257)"/><path d="M 78.11697387695312 79.5799331665039 L 78.11697387695312 79.5799331665039 L 78.11697387695312 79.5799331665039 L 78.11697387695312 79.5799331665039 L 78.11697387695312 79.5799331665039 C 181.82018595705654 142.96923557428084 283.6503502028342 163.06299722171445 420.29901123046875 80.8197250366211 L 420.29901123046875 80.8197250366211 L 420.29901123046875 80.8197250366211 L 420.29901123046875 80.8197250366211 L 420.29901123046875 80.8197250366211" style="fill: rgb(255, 106, 0); fill-opacity: 1; stroke: rgb(0, 0, 0); stroke-opacity: 1; stroke-width: 10; paint-order: fill;" transform="matrix(-2.3197908660677063e-7, 1.0434832572937014, -1.0434832572937014, -2.3197908660677063e-7, 501.3143214984628, -8.45296002083714)"/><path d="M 78.11697387695312 79.5799331665039 L 78.11697387695312 79.5799331665039 L 78.11697387695312 79.5799331665039 L 78.11697387695312 79.5799331665039 L 78.11697387695312 79.5799331665039 C 181.82018595705654 142.96923557428084 283.6503502028342 163.06299722171445 420.29901123046875 80.8197250366211 L 420.29901123046875 80.8197250366211 L 420.29901123046875 80.8197250366211 L 420.29901123046875 80.8197250366211 L 420.29901123046875 80.8197250366211" style="fill: rgb(255, 106, 0); fill-opacity: 1; stroke: rgb(0, 0, 0); stroke-opacity: 1; stroke-width: 10; paint-order: fill;" transform="matrix(1.3460619641136873e-7, -1.0434879064559937, 1.0434879064559937, 1.3460619641136873e-7, -2.8996284008025555, 509.48682400966896)"/></svg>