<?xml version="1.0" encoding="utf-8"?>
<svg id="master-artboard" viewBox="0 0 500 500" version="1.1" xmlns="http://www.w3.org/2000/svg" x="0px" y="0px" style="enable-background:new 0 0 1400 980;" width="100px" height="100px"><rect id="ee-background" x="0" y="0" width="500" height="500" style="fill: white; fill-opacity: 0; pointer-events: none;"/><g transform="matrix(4.90000057220459, 0, 0, 4.90000057220459, -2945.8857676729017, -219.62995659035698)"><g id="g-1" transform="matrix(1, 0, 0, 1, 0, 0)">
	<g id="g-2">
		<path class="st0" d="M652,46c27.6,0,50,22.4,50,50s-22.4,50-50,50s-50-22.4-50-50S624.4,46,652,46z" style="fill: rgb(255, 0, 217); stroke: rgb(0, 0, 0); stroke-width: 1;"/>
	</g>
</g><path d="M 626.5100708007812 72.56038665771484" style="fill-opacity: 1; stroke: rgb(0, 0, 0); stroke-opacity: 1; stroke-width: 10; paint-order: fill;"/></g><path d="M 127.70857238769531 238.27304077148438" style="fill: rgb(0, 0, 0); fill-opacity: 0; stroke: rgb(0, 0, 0); stroke-opacity: 1; stroke-width: 10; paint-order: stroke;"/><path d="M 123.98920440673828 248.1913604736328" style="fill: rgb(0, 0, 0); fill-opacity: 0; stroke: rgb(0, 0, 0); stroke-opacity: 1; stroke-width: 10; paint-order: fill;"/><path d="M 101.67298126220703 382.08868408203125" style="fill: rgb(0, 0, 0); fill-opacity: 0; stroke: rgb(0, 0, 0); stroke-opacity: 1; stroke-width: 10; paint-order: fill;"/><path d="M 6.209156036376953 255.63011169433594 L 492.2068176269531 258.10968017578125" style="fill: rgb(14, 14, 14); fill-opacity: 1; stroke: rgb(0, 0, 0); stroke-opacity: 1; stroke-width: 10; paint-order: fill;" transform="matrix(-1, 1.2246468525851679e-16, -1.2246468525851679e-16, -1, 497.6648750694808, 514.4909057617188)"/><path style="fill: rgb(14, 14, 14); fill-opacity: 0; stroke: rgb(0, 0, 0); stroke-opacity: 1; stroke-width: 10; paint-order: stroke;"/><path d="M 81.83634185791016 429.2007141113281 L 81.83634185791016 429.2007141113281 L 81.83634185791016 429.2007141113281 L 81.83634185791016 429.2007141113281 L 81.83634185791016 429.2007141113281 C 139.59513845123627 363.17650168355993 311.89534184465674 328.82862055130227 420.29901123046875 423.0017395019531 L 420.29901123046875 423.0017395019531" style="fill: rgb(14, 14, 14); fill-opacity: 0; stroke: rgb(0, 0, 0); stroke-opacity: 1; stroke-width: 10; paint-order: fill;" transform="matrix(-1.0366299674108685, 1.2695057055147047e-16, -1.2695057055147047e-16, -1.0366299674108685, 506.86150745269225, 524.0791256211547)"/><path d="M 59.87856674194336 103.2793197631836 C 193.02585281845214 174.7036386929443 365.1198419168833 161.0715204272784 434.96142578125 100.72805786132812" style="fill: rgb(14, 14, 14); fill-opacity: 0; stroke: rgb(0, 0, 0); stroke-opacity: 1; stroke-width: 10; paint-order: stroke;" transform="matrix(-0.9494228782055757, 1.1627078465244718e-16, -1.1627078465244718e-16, -0.9494228782055757, 482.123296801933, 516.644332654088)"/><path d="M 214.49386596679688 135.3704833984375 L 214.49386596679688 135.3704833984375 L 214.49386596679688 135.3704833984375 L 214.49386596679688 135.3704833984375 L 214.49386596679688 135.3704833984375" style="fill: rgb(14, 14, 14); fill-opacity: 0; stroke: rgb(0, 0, 0); stroke-opacity: 1; stroke-width: 10; paint-order: fill;" transform="matrix(0.9956027604545378, 0, 0, 0.9956027604545378, 1.08708456238385, 1.8350496460951788)"/></svg>