<?xml version="1.0" encoding="utf-8"?>
<svg id="master-artboard" viewBox="0 0 500 500" version="1.1" xmlns="http://www.w3.org/2000/svg" x="0px" y="0px" style="enable-background:new 0 0 1400 980;" width="100px" height="100px"><rect id="ee-background" x="0" y="0" width="500" height="500" style="fill: white; fill-opacity: 0; pointer-events: none;"/><g transform="matrix(4.90000057220459, 0, 0, 4.90000057220459, -2945.8857676729017, -219.62995659035698)"><g id="g-1" transform="matrix(1, 0, 0, 1, 0, 0)">
	<g id="g-2">
		<path class="st0" d="M652,46c27.6,0,50,22.4,50,50s-22.4,50-50,50s-50-22.4-50-50S624.4,46,652,46z" style="fill: rgb(255, 0, 217); stroke: rgb(0, 0, 0); stroke-width: 1;"/>
	</g>
</g><path d="M 626.5100708007812 72.56038665771484" style="fill-opacity: 1; stroke: rgb(0, 0, 0); stroke-opacity: 1; stroke-width: 10; paint-order: fill;"/></g><path d="M 127.70857238769531 238.27304077148438" style="fill: rgb(0, 0, 0); fill-opacity: 0; stroke: rgb(0, 0, 0); stroke-opacity: 1; stroke-width: 10; paint-order: stroke;"/><path d="M 123.98920440673828 248.1913604736328" style="fill: rgb(0, 0, 0); fill-opacity: 0; stroke: rgb(0, 0, 0); stroke-opacity: 1; stroke-width: 10; paint-order: fill;"/><path d="M 101.67298126220703 382.08868408203125" style="fill: rgb(0, 0, 0); fill-opacity: 0; stroke: rgb(0, 0, 0); stroke-opacity: 1; stroke-width: 10; paint-order: fill;"/><path d="M 6.209156036376953 255.63011169433594 L 492.2068176269531 258.10968017578125" style="fill: rgb(14, 14, 14); fill-opacity: 1; stroke: rgb(0, 0, 0); stroke-opacity: 1; stroke-width: 10; paint-order: fill;" transform="matrix(6.123233601181349e-17, 1, -1, 6.123233601181349e-17, 504.8380623253403, 1.4629573822021484)"/><path d="M 53.32117462158203 100.65635681152344 C 186.4684606980908 172.08067574128415 369.05425964149265 159.76004276614557 438.8958435058594 99.41658020019531" style="fill: rgb(14, 14, 14); fill-opacity: 0; stroke: rgb(0, 0, 0); stroke-opacity: 1; stroke-width: 10; paint-order: stroke;" transform="matrix(5.788523293164595e-17, 0.945337654935755, -0.945337654935755, 5.788523293164595e-17, 505.3402287397303, 18.015307419052032)"/><path style="fill: rgb(14, 14, 14); fill-opacity: 0; stroke: rgb(0, 0, 0); stroke-opacity: 1; stroke-width: 10; paint-order: stroke;"/><path d="M 81.83634185791016 429.2007141113281 L 81.83634185791016 429.2007141113281 L 81.83634185791016 429.2007141113281 L 81.83634185791016 429.2007141113281 L 81.83634185791016 429.2007141113281 C 139.59513845123627 363.17650168355993 355.03452570097573 346.08398595628086 420.29901123046875 423.0017395019531 L 420.29901123046875 423.0017395019531 L 420.29901123046875 423.0017395019531 L 420.29901123046875 423.0017395019531 L 420.29901123046875 423.0017395019531" style="fill: rgb(14, 14, 14); fill-opacity: 0; stroke: rgb(0, 0, 0); stroke-opacity: 1; stroke-width: 10; paint-order: fill;" transform="matrix(6.123233601181349e-17, 1, -1, 6.123233601181349e-17, 499.8789119006132, 1.462957310769383)"/></svg>