<?xml version="1.0" encoding="utf-8"?>
<svg id="master-artboard" viewBox="0 0 500 500" version="1.1" xmlns="http://www.w3.org/2000/svg" x="0px" y="0px" style="enable-background:new 0 0 1400 980;" width="100px" height="100px"><rect id="ee-background" x="0" y="0" width="500" height="500" style="fill: white; fill-opacity: 0; pointer-events: none;"/><g transform="matrix(4.90000057220459, 0, 0, 4.90000057220459, -2945.8857676729017, -219.62995659035698)"><g id="g-1" transform="matrix(1, 0, 0, 1, 0, 0)">
	<g id="g-2">
		
	<path class="st0" d="M652,46c27.6,0,50,22.4,50,50s-22.4,50-50,50s-50-22.4-50-50S624.4,46,652,46z" style="fill: rgb(162, 0, 255); stroke: rgb(0, 0, 0); stroke-width: 1;"/></g>
</g><path d="M 626.5100708007812 72.56038665771484" style="fill-opacity: 1; stroke: rgb(0, 0, 0); stroke-opacity: 1; stroke-width: 10; paint-order: fill;"/></g><path d="M 127.70857238769531 238.27304077148438" style="fill: rgb(0, 0, 0); fill-opacity: 0; stroke: rgb(0, 0, 0); stroke-opacity: 1; stroke-width: 10; paint-order: stroke;"/><path d="M 123.98920440673828 248.1913604736328" style="fill: rgb(0, 0, 0); fill-opacity: 0; stroke: rgb(0, 0, 0); stroke-opacity: 1; stroke-width: 10; paint-order: fill;"/><path d="M 101.67298126220703 382.08868408203125" style="fill: rgb(0, 0, 0); fill-opacity: 0; stroke: rgb(0, 0, 0); stroke-opacity: 1; stroke-width: 10; paint-order: fill;"/><path style="fill: rgb(14, 14, 14); fill-opacity: 0; stroke: rgb(0, 0, 0); stroke-opacity: 1; stroke-width: 10; paint-order: stroke;"/><path d="M 214.49386596679688 135.3704833984375 L 214.49386596679688 135.3704833984375 L 214.49386596679688 135.3704833984375 L 214.49386596679688 135.3704833984375 L 214.49386596679688 135.3704833984375" style="fill: rgb(14, 14, 14); fill-opacity: 0; stroke: rgb(0, 0, 0); stroke-opacity: 1; stroke-width: 10; paint-order: fill;" transform="matrix(0.9956027604545378, 0, 0, 0.9956027604545378, 1.08708456238385, 1.8350496460951788)"/><path d="M 3.7295761108398438 243.23220825195312 L 3.7295761108398438 243.23220825195312 L 3.7295761108398438 243.23220825195312 L 3.7295761108398438 243.23220825195312 L 3.7295761108398438 243.23220825195312 L 494.6864013671875 245.7117919921875 L 494.6864013671875 245.7117919921875 L 494.6864013671875 245.7117919921875 L 494.6864013671875 245.7117919921875 L 494.6864013671875 245.7117919921875" style="fill: rgb(255, 242, 0); fill-opacity: 1; stroke: rgb(0, 0, 0); stroke-opacity: 1; stroke-width: 10; paint-order: fill;" transform="matrix(6.092307634183708e-17, 0.994949460029602, -0.994949460029602, 6.092307634183708e-17, 496.25349996525955, 1.5643866788088587)"/><path d="M 50.84159469604492 110.5746841430664 L 50.84159469604492 110.5746841430664 L 50.84159469604492 110.5746841430664 L 50.84159469604492 110.5746841430664 L 50.84159469604492 110.5746841430664 C 126.18887709627526 189.99922033192664 403.87020170110634 169.95185333200723 447.5743713378906 113.05426025390625 L 447.5743713378906 113.05426025390625 L 447.5743713378906 113.05426025390625 L 447.5743713378906 113.05426025390625 L 447.5743713378906 113.05426025390625" style="fill: rgb(255, 242, 0); fill-opacity: 0; stroke: rgb(11, 11, 11); stroke-opacity: 1; stroke-width: 10; paint-order: fill;" transform="matrix(5.309098950377263e-17, 0.867041826248169, -0.867041826248169, 5.309098950377263e-17, 521.6626491351813, 33.77886391984816)"/><path d="M 89.27508544921875 432.9200744628906 L 89.27508544921875 432.9200744628906 L 89.27508544921875 432.9200744628906 L 89.27508544921875 432.9200744628906 C 156.5730018866478 338.09119908299044 353.6498893314969 357.53877376209675 412.8602600097656 429.2007141113281 L 412.8602600097656 429.2007141113281 L 412.8602600097656 429.2007141113281 L 412.8602600097656 429.2007141113281 L 412.8602600097656 429.2007141113281" style="fill: rgb(255, 242, 0); fill-opacity: 0; stroke: rgb(11, 11, 11); stroke-opacity: 1; stroke-width: 10; paint-order: fill;" transform="matrix(6.170155255992298e-17, 1.0076628923416138, -1.0076628923416138, 6.170155255992298e-17, 500.30562398869716, 0.861444724672964)"/></svg>